<svg xmlns="http://www.w3.org/2000/svg" version="1.1" xmlns:xlink="http://www.w3.org/1999/xlink" xmlns:svgjs="http://svgjs.dev/svgjs" width="100%" height="100%" viewBox="0 0 1000 600"><rect width="1000" height="600" x="0" y="0" fill="#38d343"/><g><rect width="333.3333333333333" height="333.3333333333333" rx="13.333333333333334" ry="13.333333333333334" y="157.59459693781596" fill="#8c949c" transform="matrix(0.923378866301458,0,0,0.9233788663014582,-6.734523095855366,0.5839924906713918)" x="230.55950927734375"/><path d="M177.06755395194284 345.130400851717Q174.6220813480081 345.130400851717 173.46543890020112 345.8243863204011Q172.30879645239415 346.51837178908534 171.31738863998817 348.50118741389736Q170.32598082758219 350.450956111629 168.57449369233163 355.70541751738074L168.57449369233163 355.70541751738074L160.80846582848483 378.11123407775585Q160.44494963060262 384.02663402511143 158.52822785995107 387.52960829561255Q156.6115060892995 390.9995356390335 154.39736197492616 392.3544596493217Q152.216264787633 393.67633673252965 150.92743463150524 393.67633673252965L150.92743463150524 393.67633673252965Q146.73047489231993 393.67633673252965 144.71461234042778 391.69352110771774Q142.66570286145543 389.743752409986 142.66570286145543 384.48929100423425L142.66570286145543 384.48929100423425Q142.66570286145543 376.0292776717033 146.63133411107933 369.0563760577812L146.63133411107933 369.0563760577812L149.30813520457548 361.25730126685426Q153.6042357250014 348.36899970557647 156.6115060892995 340.23945564384746L156.6115060892995 340.23945564384746Q156.2810368184975 339.08281319604055 156.2810368184975 337.000856789988L156.2810368184975 337.000856789988Q156.2810368184975 331.5150668946749 157.60291390170548 328.2764680408154Q158.95783791199364 325.0048222598756 162.65909374497596 322.5923965830211L162.65909374497596 322.5923965830211L184.73444103454906 270.6426272129479Q184.96576952411044 270.1799702338251 185.26319186783223 269.5520786193013Q185.56061421155403 268.8911400776973 185.89108348235604 268.09801382777255L185.89108348235604 268.09801382777255Q190.18718400278192 259.37362507859996 193.69015827328306 254.31744523532947Q197.16008561670395 249.261265392059 200.99352915800708 249.261265392059L200.99352915800708 249.261265392059Q209.5857301988589 249.261265392059 216.85605415650272 261.4555814846525Q224.12637811414655 273.6829445043262 229.28169873865767 290.10726726318524Q234.47006629024892 306.53159002204427 240.98031092504817 331.5150668946749L240.98031092504817 331.5150668946749Q245.5077399350355 349.19517288258146 248.05235332021078 357.6551862151125Q250.59696670538614 366.1482464747237 253.0424393093209 369.0563760577812L253.0424393093209 369.0563760577812Q253.5050962884437 369.61817381814467 254.03384712172686 370.21301850558825Q254.56259795501006 370.80786319303184 255.15744264245365 371.50184866171594L255.15744264245365 371.50184866171594Q257.1072113401854 373.8151335573299 257.9333845171904 375.1039637134577Q258.72651076711514 376.35974694250524 259.15612081915776 378.27646871315676Q259.55268394412013 380.1931904838084 259.55268394412013 383.6961647543095L259.55268394412013 383.6961647543095Q259.55268394412013 394.96516688865745 248.87852649721577 394.96516688865745L248.87852649721577 394.96516688865745Q244.2189097789077 394.96516688865745 240.3854662376046 386.47210662904627Q236.5520226963015 378.0120932965152 234.33787858192812 368.46153137033764L234.33787858192812 368.46153137033764L233.41256462368256 365.22293251647807Q230.73576353018638 355.70541751738074 229.34779259281805 352.0372086114786Q227.95982165544967 348.36899970557647 225.87786524939713 346.74970027864674Q223.76286191626437 345.130400851717 219.69808988539984 345.130400851717L219.69808988539984 345.130400851717L177.06755395194284 345.130400851717ZM180.80185671200536 321.76622340601614L189.62538624241856 321.99755189557754Q198.08539957494955 322.3610680934597 206.21494363667858 322.3610680934597L206.21494363667858 322.3610680934597Q214.84019160461057 322.3610680934597 219.69808988539984 321.99755189557754L219.69808988539984 321.99755189557754Q216.22816254197895 311.6538637194751 209.25526092805688 296.78274653338553L209.25526092805688 296.78274653338553L200.0682151997615 276.78935564986494Q197.85407108538817 278.0781858059927 191.47601415890972 293.6432884607666Q185.09795723243127 309.2083911155404 180.80185671200536 321.76622340601614L180.80185671200536 321.76622340601614ZM378.9842784119602 315.1568379899762Q382.0245957033385 315.1568379899762 384.63530294267434 318.8580938229586Q387.24601018200997 322.5923965830211 387.24601018200997 326.6571686138856L387.24601018200997 326.6571686138856Q387.24601018200997 335.1171819464166 382.9499096615841 337.56265455035134L382.9499096615841 337.56265455035134Q382.9499096615841 341.75961428953667 382.7185811720227 349.42650137214287L382.7185811720227 349.42650137214287Q382.35506497414053 355.34190131949856 382.35506497414053 361.389488975175L382.35506497414053 361.389488975175Q382.35506497414053 369.15551683902186 382.9499096615841 378.47475027563803L382.9499096615841 378.47475027563803Q382.9499096615841 384.8528072021164 382.1237364845791 388.091406055976Q381.29756330757414 391.3630518369157 380.0417800785266 392.4205535034821Q378.7529499223988 393.44500824296824 376.5388058080255 393.44500824296824L376.5388058080255 393.44500824296824Q374.2255209124115 393.44500824296824 372.6723153396422 391.8918026701989Q371.0860628397926 390.3055501703493 369.86332653782523 388.4549222538582Q368.64059023585787 386.60429433736704 367.94660476717365 385.6789803791214L367.94660476717365 385.6789803791214Q362.2625333093794 388.4549222538582 354.43041159137215 391.0656294931939Q346.5652429462848 393.67633673252965 339.26187206156067 393.67633673252965L339.26187206156067 393.67633673252965Q312.65909576200033 393.67633673252965 299.24204336743946 376.2606061612647Q285.82499097287854 358.8118286629194 285.82499097287854 326.062323926442L285.82499097287854 326.062323926442Q285.82499097287854 312.81050616728214 293.12836185760256 294.4694616377716Q300.4647796694068 276.0953701811808 313.5183158660855 262.6783177866199Q326.6048989898444 249.261265392059 343.19445638410446 249.261265392059L343.19445638410446 249.261265392059Q353.30681607064537 249.261265392059 361.9651109656576 252.9955681521215Q370.6234058606698 256.69682398510383 375.84482033934125 263.6697255990258Q381.0662348180128 270.6426272129479 381.0662348180128 279.9288137224839L381.0662348180128 279.9288137224839Q381.0662348180128 287.0339030447267 379.612170026484 290.50383038814766Q378.19115216203545 294.0068046586488 375.51435106853927 294.0068046586488L375.51435106853927 294.0068046586488Q374.8203655998551 294.0068046586488 373.63067622496794 292.38750523171905Q372.4740337771609 290.73515887770907 371.317391329354 288.88453096121793L371.317391329354 288.88453096121793Q369.00410643374005 284.95194663867414 367.94660476717365 283.9935857533484L367.94660476717365 283.9935857533484Q355.98361716414155 271.4688003899529 342.0378139362974 271.4688003899529L342.0378139362974 271.4688003899529Q332.6194397184407 271.4688003899529 323.0358308651829 280.62279919116804Q313.45222201192513 289.80984491946344 307.23939972084764 303.4251788765056Q301.0265774297702 317.0074659064675 301.0265774297702 329.06959429074016L301.0265774297702 329.06959429074016Q301.0265774297702 343.47805449770703 306.2479919084417 353.06166335096475Q311.50245331419336 362.6783191313028 320.65645211540857 367.3048889225307Q329.843497843704 371.96450564083875 341.9386731550569 371.96450564083875L341.9386731550569 371.96450564083875Q352.3815021123998 371.96450564083875 357.8342450806327 370.1138777243476Q363.32003497594576 368.23020288077623 365.26980367367753 364.4628531936336Q367.2526192984895 360.6955035064908 367.2526192984895 354.05307116337076L367.2526192984895 354.05307116337076L367.2526192984895 340.00812715428606Q360.9737031532516 340.83430033129105 350.5308741959086 340.83430033129105L350.5308741959086 340.83430033129105Q347.85407310241254 340.83430033129105 345.111178154756 339.24804783144157Q342.4013301341796 337.6948422586721 340.58374914476866 334.7867126756146Q338.79921508243797 331.87858309255705 338.79921508243797 328.045139551254L338.79921508243797 328.045139551254Q338.79921508243797 321.53489491645473 341.87257930089646 319.0233284583595Q344.94594351935496 316.54480892734466 349.9360295084651 316.54480892734466L349.9360295084651 316.54480892734466Q353.53814456020683 316.54480892734466 360.51104617412886 317.106606687708L360.51104617412886 317.106606687708Q363.65050424674774 317.106606687708 369.46676341286286 316.1812927294625L369.46676341286286 316.1812927294625Q375.1508348706571 315.1568379899762 378.9842784119602 315.1568379899762L378.9842784119602 315.1568379899762ZM436.9485885106297 382.07686532737966Q436.9485885106297 387.52960829561255 434.2387404900533 390.735160222392Q431.4958455423968 393.90766522209105 426.96841653240955 393.90766522209105L426.96841653240955 393.90766522209105Q423.59762997022915 393.90766522209105 421.05301658505385 389.743752409986Q418.4753562727983 385.54679267080064 418.4753562727983 380.55670668169057L418.4753562727983 380.55670668169057Q418.4753562727983 378.93740725476084 418.9710601790013 374.9717760051369L418.9710601790013 374.9717760051369Q419.4337171581241 371.27052017215453 419.4337171581241 369.61817381814467L419.4337171581241 369.61817381814467Q419.4337171581241 366.7430911621673 418.4753562727983 358.7126878816789L418.4753562727983 358.7126878816789Q417.21957304375076 346.8488410598874 416.39339986674577 334.7206188214542Q415.60027361682097 322.5923965830211 415.60027361682097 307.48995090737003L415.60027361682097 307.48995090737003Q415.60027361682097 296.2209487730221 416.9221507000289 286.9678091905663Q418.2440277832369 277.74771653519076 422.3087998141014 273.4516160147648L422.3087998141014 273.4516160147648Q442.53351918718334 253.5573659124849 464.37753798719507 253.5573659124849L464.37753798719507 253.5573659124849Q472.63926975724485 253.5573659124849 479.8765467878085 257.1264340371464Q487.14687074545225 260.66245523472776 491.6742997554396 267.9658261194518Q496.2017287654269 275.302243931256 496.2017287654269 286.1085890864812L496.2017287654269 286.1085890864812Q496.2017287654269 295.8574325751399 492.0378159533218 302.5990056995006Q487.84085621413647 309.34057882386116 481.23147079809667 313.50449163596636L481.23147079809667 313.50449163596636Q493.1944584011287 317.5692636668308 499.4072806922062 325.6657608014797Q505.6201029832837 333.7292110090482 507.669012462256 344.8329785079952Q509.68487501414813 355.93674600694214 509.68487501414813 372.19583413040016L509.68487501414813 372.19583413040016Q509.68487501414813 381.1185044420539 509.22221803502543 386.53820048320665Q508.7595610559026 391.92484959727915 506.9750269935719 395.59305850318117Q505.1574460041609 399.2612674090833 501.2248616816172 399.2612674090833L501.2248616816172 399.2612674090833Q496.79657345287046 399.2612674090833 495.2433678801011 395.59305850318117Q493.6571153802515 391.92484959727915 493.6571153802515 385.31546418123924L493.6571153802515 385.31546418123924L493.6571153802515 382.4073345981817Q493.6571153802515 376.82240392162805 493.7893030885724 373.94732126565077L493.7893030885724 373.94732126565077L493.88844386981293 364.76027553735537Q493.88844386981293 359.6380018399244 493.59102152609114 355.93674600694214Q493.3266461094496 352.2024432468796 492.5004729324446 347.3114980390101L492.5004729324446 347.3114980390101Q489.72453105770785 341.3960980916545 483.31342720414926 337.6287484045117Q476.93537027767076 333.86139871736907 469.2023893409042 332.10991158211846Q461.46940840413754 330.35842444686796 454.26517830065404 330.35842444686796L454.26517830065404 330.35842444686796Q451.0265794467946 330.35842444686796 443.75625548915076 332.2751462175195Q436.4859315315069 334.191867988171 432.18983101108097 336.4060121025444L432.18983101108097 336.4060121025444Q432.4211595006424 346.8488410598874 433.77608351093056 360.4641750169294Q435.0979605941385 374.0464620468913 436.9485885106297 382.07686532737966L436.9485885106297 382.07686532737966ZM430.00873382378785 300.05439231432524Q430.00873382378785 306.06893304292146 430.93404778203336 311.6538637194751L430.93404778203336 311.6538637194751Q440.4515627811308 309.803235802984 452.4806442383233 306.0358861158413Q464.50972569551584 302.2354895016184 473.10192673636766 297.6089197103905Q481.6941277772195 292.9493029920824 481.6941277772195 288.7853901799773L481.6941277772195 288.7853901799773Q481.6941277772195 281.1185030973711 476.70404178810935 277.8468573164313Q471.7139557989993 274.6082584625718 464.6088664767565 274.6082584625718L464.6088664767565 274.6082584625718Q458.3299503315186 274.6082584625718 450.26650012395 277.02068413942635Q442.20304991638136 279.4661567433611 436.3206968961059 283.66311648254646Q430.47139080291066 287.82702929465154 430.33920309458983 292.85016221084175L430.33920309458983 292.85016221084175L430.24006231334926 296.4522772625835Q430.00873382378785 298.76556215819744 430.00873382378785 300.05439231432524L430.00873382378785 300.05439231432524ZM596.9287625058743 250.41790783986596Q614.6088684937808 250.41790783986596 626.9353722946951 259.07620273487817Q639.2288291685292 267.73449762989037 645.507745313767 283.96053882626813Q651.7866614590049 300.15353309556576 651.7866614590049 322.82372507258253L651.7866614590049 322.82372507258253Q651.7866614590049 343.6102422060278 643.7232112514363 360.1006588190472Q635.6267141167874 376.59107543206665 622.1435678680663 385.77812116036205Q608.6934685464252 394.96516688865745 593.2275066728919 394.96516688865745L593.2275066728919 394.96516688865745Q577.7615447993586 394.96516688865745 564.2453516235571 384.2249155875927Q550.6961115206755 373.4516173594477 542.6987551672672 356.86205996518765Q534.6683518867787 340.23945564384746 534.6683518867787 323.74903903082804L534.6683518867787 323.74903903082804Q535.0318680846609 298.40204596031526 543.7232099067534 281.97772320145623Q552.447598655926 265.52035351551706 566.3934018837701 257.9856541412316Q580.3392051116141 250.41790783986596 596.9287625058743 250.41790783986596L596.9287625058743 250.41790783986596ZM592.1700050063256 372.65849110952297Q604.2651803176785 372.65849110952297 614.6749623479411 366.9744196517287Q625.0516974511237 361.25730126685426 631.396707450522 350.1204868408271Q637.7086705228401 338.9506254877198 637.7086705228401 323.51771054126664L637.7086705228401 323.51771054126664Q637.7086705228401 308.0517486677335 632.71858453373 296.4522772625835Q627.7284985446198 284.8197589303534 618.8388751600463 278.5408427851155Q609.9492517754727 272.26192663987763 598.6802496411248 272.26192663987763L598.6802496411248 272.26192663987763Q585.8910888610876 272.26192663987763 574.6220867267397 277.6816226810304Q563.3530845923917 283.0682717951029 556.4462768326301 293.9407108044884Q549.5394690728684 304.8131498138739 549.5394690728684 320.3782524686477L549.5394690728684 320.3782524686477Q549.5394690728684 332.8038970508027 555.5870567285449 344.99821314339613Q561.6346443842214 357.1925292359897 571.515675581201 364.9255101727563Q581.3636598511004 372.65849110952297 592.1700050063256 372.65849110952297L592.1700050063256 372.65849110952297Z " fill="#eaeff2" transform="matrix(0.923378866301458,0,0,0.9233788663014582,-6.734523095855366,0.5839924906713918)"/><path d="M674.022530244647 356.5708640084291Q665.3056430476423 356.5708640084291 658.1284909110772 352.7711952302476Q650.9761732109707 348.971526452066 650.9761732109707 337.7960300456497L650.9761732109707 337.7960300456497Q650.9761732109707 336.0576194935404 651.7957096141079 333.22649373724835Q652.6400804537038 330.37053354449756 653.9314711495564 328.23477200904904Q655.2476962818677 326.09901047360063 656.7377624693898 326.09901047360063L656.7377624693898 326.09901047360063Q656.9116035246008 326.09901047360063 657.6069677454444 326.9682157496552Q658.3023319662882 327.8622554621685 658.9231928777557 329.079142848645L658.9231928777557 329.079142848645Q661.5308087059195 334.2198711955965 663.6665702413679 336.4549704768797Q665.8271662132752 338.66523532170424 668.260940986228 339.2115929237957Q670.6947157591809 339.73311608942856 675.7609407967562 339.73311608942856L675.7609407967562 339.73311608942856Q680.9265035801665 339.73311608942856 686.7625961479616 337.59735455398004Q692.6235231522155 335.4367585820729 696.597032985608 332.30761958827634Q700.5705428190005 329.15364615802105 700.5705428190005 326.3721892746463L700.5705428190005 326.3721892746463Q700.5705428190005 323.6652357006477 698.0374303002128 321.6536463474928Q695.5043177814251 319.64205699433785 691.58047682095 318.25132855265053Q687.656635860475 316.8606001109631 680.8271658343317 314.9235140671843L680.8271658343317 314.9235140671843Q670.347033648759 311.96821612859867 663.6417358049092 309.26126255459997Q656.9116035246008 306.5543089806014 652.0688884151537 301.488083943026Q647.2261733057067 296.42185890545056 647.2261733057067 288.57417698450047L647.2261733057067 288.57417698450047Q647.2261733057067 276.6784819207818 652.8635903818322 267.7380847956487Q658.4761730214991 258.79768767051564 667.2923979643385 254.0294758704447Q676.1086229071782 249.26126407037376 685.2973643968983 249.26126407037376L685.2973643968983 249.26126407037376Q691.0589536553173 249.26126407037376 695.5788210908013 252.01788651728975Q700.1235229627439 254.77450896420578 702.6069666086141 259.3192108361484Q705.1152446909432 263.8639127080911 705.1152446909432 269.10397880087737L705.1152446909432 269.10397880087737Q705.1152446909432 275.73477333535106 703.9231917409254 280.1801374614589Q702.7559732273664 284.62550158756676 699.1798143773132 284.62550158756676L699.1798143773132 284.62550158756676Q696.7212051679015 284.62550158756676 696.0755098199752 282.5890777979531Q695.4049800355904 280.52781957188074 695.4049800355904 276.5046408655709L695.4049800355904 276.5046408655709Q695.4049800355904 270.74305160715176 692.2261721688762 268.383780143575Q689.0473643021624 266.02450867999823 682.9380929333214 266.02450867999823L682.9380929333214 266.02450867999823Q678.5672321165897 266.02450867999823 672.5821329300422 269.10397880087737Q666.5970337434949 272.15861448529785 662.325510672598 277.0013295947449Q658.053987601701 281.844044704192 658.053987601701 286.91026974176737L658.053987601701 286.91026974176737Q658.053987601701 290.21324979077485 660.7112723027823 292.44834907205814Q663.3685570038635 294.6834483533414 667.3917357101734 296.0245079221114Q671.4149144164833 297.39040192734 678.6417354259659 299.2033157888253L678.6417354259659 299.2033157888253Q689.0473643021624 301.83576605344786 695.5539866543425 304.3192096993181Q702.0606090065227 306.80265334518845 706.7543174972175 311.96821612859867Q711.4728604243711 317.1089444755502 711.4728604243711 325.50298399859173L711.4728604243711 325.50298399859173Q711.4728604243711 335.8837784383296 704.7675625805214 342.86225508322514Q698.0374303002128 349.84073172812066 689.1218676115384 353.2182150865042Q680.2311393593228 356.5708640084291 674.022530244647 356.5708640084291L674.022530244647 356.5708640084291ZM796.8784874058505 271.01623040819754Q798.6168979579596 271.01623040819754 799.7096131621425 273.15199194364595Q800.8023283663255 275.28775347909436 800.8023283663255 277.746362688506L800.8023283663255 277.746362688506Q800.8023283663255 279.7331176052022 799.8337853444361 281.6702036489811Q798.8652423225467 283.58245525630116 795.2890834724935 289.44338226055504L795.2890834724935 289.44338226055504Q794.9414013620717 289.865567680353 794.7178914339434 290.2629186636923Q794.5192159422737 290.66026964703155 794.3453748870628 290.9086140116185L794.3453748870628 290.9086140116185Q792.7559709537057 293.36722322103014 791.2907392026424 295.552653629396L791.2907392026424 295.552653629396Q787.5159048609195 301.21490514198024 784.6847791046274 306.03278581496863Q781.8536533483352 310.8258320514983 778.6996799180799 317.38212327659585L778.6996799180799 317.38212327659585Q778.0043156972363 318.8473550276593 771.7212032731844 331.165235511176L771.7212032731844 331.165235511176Q760.9927267230247 351.8523210812756 754.6102765531381 366.30596310024066Q748.2278263832515 380.75960511920573 748.2278263832515 388.95496915057777L748.2278263832515 388.95496915057777Q748.2278263832515 392.72980349230056 746.5390847040596 395.9831146683906Q744.8255085884092 399.2612602809395 742.2923960696214 399.2612602809395L742.2923960696214 399.2612602809395Q740.9016676279341 399.2612602809395 738.7659060924857 397.69669078404115Q736.6301445570372 396.1321212871429 735.0655750601388 393.8473531329422Q733.4761711267819 391.5874194152002 733.4761711267819 389.7496711172562L733.4761711267819 389.7496711172562Q733.5755088726166 385.1304659359374 737.2013365955873 375.2711946618324Q740.827164318558 365.38708895126865 744.6516675331982 358.6817911074189L744.6516675331982 358.6817911074189L751.7294819239286 344.87384443638007Q747.1102767426098 334.56755330601834 734.4447141486713 303.22649449513517L734.4447141486713 303.22649449513517L728.5092838350413 288.57417698450047Q727.6400785589867 286.4632498855108 727.118555393354 284.2033161677688Q726.5721977912625 281.91854801356806 726.5721977912625 280.52781957188074L726.5721977912625 280.52781957188074Q726.7708732829321 276.2562965009838 728.7327937631696 273.6238462363613Q730.6947142434071 271.01623040819754 733.4761711267819 271.01623040819754L733.4761711267819 271.01623040819754Q735.4132571705607 271.01623040819754 736.3569657559915 272.6304687780132Q737.3255087778808 274.2447071478289 738.815574965403 278.26788585413874L738.815574965403 278.26788585413874Q742.8139192352542 289.6917266251421 749.3702104603518 306.23146130663827Q755.9265016854494 322.79603042459314 759.3288194802916 330.19669248928665L759.3288194802916 330.19669248928665L785.3553088890123 279.7331176052022Q787.4414015515434 275.63543558951625 790.5457061088813 273.32583299885687Q793.6251762297604 271.01623040819754 796.8784874058505 271.01623040819754L796.8784874058505 271.01623040819754ZM865.6698763964577 322.0013284579146Q865.6698763964577 308.1188784774997 861.2493467068085 297.9864284023489Q856.8536514536181 287.8539783271981 844.4612676607253 287.8539783271981L844.4612676607253 287.8539783271981Q840.7857710648373 287.8539783271981 836.0175592647663 290.03940873556394Q831.2741819011541 292.2248391439298 826.8039833385875 296.0245079221114Q822.3586192124798 299.8241767002929 819.5771623291049 304.36887857223553L819.5771623291049 304.36887857223553Q819.5771623291049 307.3241765108212 819.403321273894 314.32748759217543L819.403321273894 314.32748759217543Q819.2294802186831 320.9582821266491 819.2294802186831 323.4913946454368L819.2294802186831 323.4913946454368Q819.2294802186831 326.1983482194354 819.5771623291049 328.7562951746818Q819.9248444395267 331.3390765663869 820.6202086603705 335.0890764716511L820.6202086603705 335.0890764716511Q821.1417318260033 337.89536779148455 821.5390828093425 340.9003346029875Q821.9364337926818 343.9053014144906 821.9364337926818 346.53775167911317L821.9364337926818 346.53775167911317Q821.9364337926818 351.50463897085376 820.7940497155814 354.03775148964144Q819.6516656384811 356.5708640084291 815.9016657332169 356.5708640084291L815.9016657332169 356.5708640084291Q812.1516658279528 356.5708640084291 809.8668976737521 354.484771345898Q807.6069639560102 352.37384424690833 807.7808050112211 346.0162285134803L807.7808050112211 346.0162285134803L808.1284871216429 311.79437507338776Q807.1599440997535 299.3771568440362 807.1599440997535 294.75795166271746L807.1599440997535 294.75795166271746L807.1599440997535 292.15033583455374Q807.1599440997535 284.45166053235585 808.6500102872757 278.0940447989278Q810.1400764747979 271.7115946290412 813.4678909602641 271.7115946290412L813.4678909602641 271.7115946290412Q820.0986854947378 271.7115946290412 820.0986854947378 283.1602698365033L820.0986854947378 283.1602698365033Q820.0986854947378 284.9731836979886 819.5771623291049 290.38709084598577L819.5771623291049 290.38709084598577L819.3039835280592 292.6718590001865Q821.2162351353794 285.8672234105019 826.2824601729548 280.97483942813733Q831.3486852105302 276.0824554457729 837.209612214784 273.5990117999026Q843.0457047825793 271.0907337175736 847.1682212347239 271.0907337175736L847.1682212347239 271.0907337175736Q863.5837837339266 271.0907337175736 870.4629226329873 284.5509982781906Q877.3668959685067 297.9864284023489 877.3668959685067 317.20828222138493L877.3668959685067 317.20828222138493Q877.3668959685067 335.0145731622749 875.7029887257736 346.53775167911317Q874.0390814830405 358.0609301959513 868.898353136089 358.0609301959513L868.898353136089 358.0609301959513Q866.6384194183471 358.0609301959513 865.222856540201 357.4897381574011Q863.8321280985136 356.91854611885094 862.962922822459 354.78278458340253Q862.0937175464044 352.647023047954 862.0937175464044 348.2016589218463L862.0937175464044 348.2016589218463Q862.0937175464044 345.32086429263666 862.5159029662024 342.5145729728032Q862.962922822459 339.73311608942856 863.8321280985136 335.53609632790767L863.8321280985136 335.53609632790767Q864.8006711204031 330.743050091378 865.222856540201 327.93675877154465Q865.6698763964577 325.1553018881699 865.6698763964577 322.0013284579146L865.6698763964577 322.0013284579146ZM948.1698743122687 335.8837784383296Q949.3122583893692 335.8837784383296 950.8768278862674 336.9268247695951Q952.4413973831657 337.9698711008606 953.6831192061007 340.32914256443735Q954.9000065925773 342.6884140280142 954.9000065925773 346.36391062390226L954.9000065925773 346.36391062390226Q954.9000065925773 348.2761622312223 953.6831192061007 350.5112615125056Q952.4413973831657 352.72152635733016 950.7526557039739 354.21159254485235Q949.0390795883234 355.70165873237454 947.7476888924708 355.70165873237454L947.7476888924708 355.70165873237454L942.5821261090606 355.70165873237454Q939.6268281704749 355.70165873237454 934.0390799672667 356.04934084279637L934.0390799672667 356.04934084279637Q928.4513317640586 356.3970229532182 925.3966960796382 356.3970229532182L925.3966960796382 356.3970229532182Q910.1980209669119 356.3970229532182 901.2079549688616 348.971526452066Q892.217888970811 341.54602995091386 892.217888970811 323.73973901002387L892.217888970811 323.73973901002387Q892.217888970811 309.435103609811 896.8867630250472 297.58907741900964Q901.5556370792834 285.767885664667 910.5457030773338 278.8390778926889Q919.5357690753843 271.8854356842521 931.8536495589009 271.8854356842521L931.8536495589009 271.8854356842521Q937.962920927742 271.8854356842521 943.1533181476108 274.8904024957552Q948.3437153674797 277.9202037437169 951.4480199248176 283.1851042729619Q954.5523244821554 288.4748392386657 954.5523244821554 294.9317927179284L954.5523244821554 294.9317927179284Q954.5523244821554 297.9864284023489 953.5837814602661 301.1900707055215Q952.6152384383767 304.36887857223553 950.6284835216803 304.36887857223553L950.6284835216803 304.36887857223553Q949.1384173341581 304.36887857223553 948.0457021299752 303.22649449513517Q946.9529869257923 302.0841104180349 945.3884174288941 299.650335645082L945.3884174288941 299.650335645082Q943.4513313851152 296.67020327003763 941.6632519600886 294.633779480424Q939.875172535062 292.5725212543516 936.7460335412654 291.0824550668294Q933.59206011101 289.61722331576595 928.9728549296914 289.61722331576595L928.9728549296914 289.61722331576595Q921.7957027931262 289.61722331576595 916.0341135347072 293.7645742043694Q910.2725242762881 297.91192509297275 907.0937164095741 304.5923885003639Q903.9149085428602 311.272851907755 903.9149085428602 318.59901066307236L903.9149085428602 318.59901066307236Q903.9149085428602 327.1420568048661 907.1433852824915 331.6867586768087Q910.3718620221229 336.23146054875144 916.9529876836792 337.9698711008606Q923.5589477816942 339.73311608942856 934.9082852433214 339.73311608942856L934.9082852433214 339.73311608942856Q937.3420600162743 339.73311608942856 939.1053050048422 339.2364273602544Q940.8437155569515 338.7645730675391 943.1036492746933 337.72152673627363L943.1036492746933 337.72152673627363Q945.9844439039028 336.3307982945862 948.1698743122687 335.8837784383296L948.1698743122687 335.8837784383296Z " fill="#a04ef6" transform="matrix(0.923378866301458,0,0,0.9233788663014582,-6.734523095855366,0.5839924906713918)"/></g></svg>